<?xml version="1.0" encoding="UTF-8" standalone="no"?>
<!-- Created with Inkscape (http://www.inkscape.org/) -->

<svg
   xmlns:dc="http://purl.org/dc/elements/1.1/"
   xmlns:cc="http://creativecommons.org/ns#"
   xmlns:rdf="http://www.w3.org/1999/02/22-rdf-syntax-ns#"
   xmlns:svg="http://www.w3.org/2000/svg"
   xmlns="http://www.w3.org/2000/svg"
   xmlns:sodipodi="http://sodipodi.sourceforge.net/DTD/sodipodi-0.dtd"
   xmlns:inkscape="http://www.inkscape.org/namespaces/inkscape"
   id="svg2"
   height="2.0159531in"
   width="3.4737499in"
   version="1.1"
   viewBox="0 0 312.63749 181.43578"
   inkscape:version="0.91 r13725"
   sodipodi:docname="02fig01-centralized.svg">
  <sodipodi:namedview
     pagecolor="#ffffff"
     bordercolor="#666666"
     borderopacity="1"
     objecttolerance="10"
     gridtolerance="10"
     guidetolerance="10"
     inkscape:pageopacity="0"
     inkscape:pageshadow="2"
     inkscape:window-width="640"
     inkscape:window-height="480"
     id="namedview8334"
     showgrid="false"
     fit-margin-top="0"
     fit-margin-left="0"
     fit-margin-right="0"
     fit-margin-bottom="0"
     inkscape:zoom="0.37460317"
     inkscape:cx="116.05855"
     inkscape:cy="-107.1312"
     inkscape:window-x="0"
     inkscape:window-y="0"
     inkscape:window-maximized="0"
     inkscape:current-layer="svg2" />
  <defs
     id="defs4">
    <marker
       id="Arrow2Lend"
       refY="0"
       refX="0"
       orient="auto"
       overflow="visible"
       style="overflow:visible">
      <path
         id="path4440"
         d="M 8.7186,4.0337 -2.2074,0.016 8.7186,-4.0017 c -1.7455,2.3721 -1.7354,5.6175 -6e-7,8.0354 z"
         transform="matrix(-1.1,0,0,-1.1,-1.1,0)"
         inkscape:connector-curvature="0"
         style="fill-rule:evenodd;stroke:#000000;stroke-width:0.625;stroke-linejoin:round" />
    </marker>
    <marker
       id="Arrow2Lend-3"
       refY="0"
       refX="0"
       orient="auto"
       overflow="visible"
       style="overflow:visible">
      <path
         id="path4440-7"
         d="M 8.7186,4.0337 -2.2074,0.016 8.7186,-4.0017 c -1.7455,2.3721 -1.7354,5.6175 -6e-7,8.0354 z"
         transform="matrix(-1.1,0,0,-1.1,-1.1,0)"
         inkscape:connector-curvature="0"
         style="fill-rule:evenodd;stroke:#000000;stroke-width:0.625;stroke-linejoin:round" />
    </marker>
  </defs>
  <metadata
     id="metadata7">
    <rdf:RDF>
      <cc:Work
         rdf:about="">
        <dc:format>image/svg+xml</dc:format>
        <dc:type
           rdf:resource="http://purl.org/dc/dcmitype/StillImage" />
        <dc:title></dc:title>
      </cc:Work>
    </rdf:RDF>
  </metadata>
  <g
     id="layer1"
     transform="translate(-53.225359,-448.79303)">
    <g
       id="g4380"
       transform="matrix(0.49709,0,0,0.49709,240.87,359.53)">
      <path
         id="path3350"
         d="m -364.35,479.38 c -38.947,-52.583 18.695,-131.22 70.162,-98.879 16.892,11.957 22.865,64.245 22.865,64.245 l -30.778,30.132 z"
         inkscape:connector-curvature="0"
         style="fill:#e6e6e6;fill-rule:evenodd;stroke:#000000;stroke-width:0.68520999px" />
      <ellipse
         id="path3340"
         rx="30.636"
         ry="30.077999"
         cy="419.70999"
         cx="-324.57999"
         style="fill:#ffffff" />
      <path
         id="path3348"
         d="m -365.57,544.19 c 0,0 47.496,-2.4163 96.98,0.14794 l -32.374,-95.568 c -31.247,18.837 -42.606,2.0842 -42.606,2.0842 z"
         inkscape:connector-curvature="0"
         style="fill:#999999;fill-rule:evenodd;stroke:#000000;stroke-width:0.42614001px" />
      <path
         id="path4156"
         d="m -360.7,405.89 c 0.77412,3.1944 2.8528,6.0522 5.6535,7.7726 2.8007,1.7204 6.2895,2.2825 9.4888,1.5288 3.3081,-0.7793 6.1378,-2.8418 8.9889,-4.6916 1.4256,-0.9249 2.8857,-1.8103 4.4515,-2.4707 1.5657,-0.6604 3.2474,-1.0924 4.9467,-1.0761 2.565,0.0245 5.018,1.0617 7.2379,2.3469 2.2199,1.2852 4.2843,2.8332 6.5524,4.0312 4.1999,2.2183 9.0583,3.1704 13.785,2.7011 4.7265,-0.46923 9.3029,-2.3579 12.985,-5.3587 -1.1799,-8.6269 -5.4424,-16.8 -11.841,-22.705 -6.3989,-5.905 -14.887,-9.4986 -23.581,-9.9832 -8.5828,-0.47843 -17.304,2.0741 -24.275,7.1045 -6.9706,5.0304 -12.141,12.503 -14.392,20.8 z"
         inkscape:connector-curvature="0"
         style="fill:#e6e6e6;fill-rule:evenodd" />
      <ellipse
         id="path4185"
         rx="3.1238999"
         ry="2.7902999"
         cy="418.16"
         cx="-332.45001"
         style="fill:#2b0000" />
      <path
         id="path4250"
         d="m -335.63,424.55 c 0,0 2.308,10.064 8.9157,10.479 6.7604,0.4246 12.771,-9.3463 12.771,-9.3463"
         inkscape:connector-curvature="0"
         style="fill:none;stroke:#000000;stroke-width:0.36574px" />
      <ellipse
         id="path4185-0"
         rx="3.1238999"
         ry="2.7902999"
         cy="418.07999"
         cx="-319.64001"
         style="fill:#2b0000" />
      <path
         id="path4250-5"
         d="m -331.16,422.23 c 0,0 0.81097,3.3534 3.1328,3.4917 2.3755,0.14147 4.4875,-3.1142 4.4875,-3.1142"
         inkscape:connector-curvature="0"
         style="fill:none;stroke:#000000;stroke-width:0.12514px" />
    </g>
    <g
       id="g4390"
       transform="matrix(0.47991,0,0,0.47991,416.52,358.73)">
      <ellipse
         id="path3340-7"
         rx="38.716999"
         ry="38.012001"
         cy="432.07999"
         cx="-157.33"
         style="fill:#b3b3b3" />
      <path
         id="path3348-0"
         d="m -202.83,555.34 c 0,0 47.511,-2.1604 97.009,0.13227 l -23.76,-89.299 c -31.257,16.841 -55.555,0.57871 -55.555,0.57871 z"
         inkscape:connector-curvature="0"
         style="fill:#999999;fill-rule:evenodd;stroke:#000000;stroke-width:0.403px" />
      <path
         id="path4156-3"
         d="m -192.64,412.65 c 4.6245,2.9273 9.5293,5.4117 14.625,7.4082 5.8448,2.2898 12.183,3.9519 18.37,2.8917 4.4238,-0.75799 8.4846,-2.8565 12.709,-4.3734 8.2332,-2.9564 17.251,-3.6946 25.855,-2.1166 -2.4646,-7.1877 -7.1041,-13.614 -13.151,-18.215 -6.0469,-4.6014 -13.477,-7.3599 -21.062,-7.8192 -7.6784,-0.46502 -15.484,1.4298 -22.094,5.3636 -6.6106,3.9338 -11.999,9.8903 -15.252,16.861 z"
         inkscape:connector-curvature="0"
         style="fill:#333333;fill-rule:evenodd" />
      <ellipse
         id="path4185-1"
         rx="3.9479001"
         ry="3.5263"
         cy="430.13"
         cx="-167.25999"
         style="fill:#2b0000" />
      <path
         id="path4250-6"
         d="m -171.29,438.2 c 0,0 2.9168,12.719 11.267,13.243 8.5437,0.5366 16.14,-11.812 16.14,-11.812"
         inkscape:connector-curvature="0"
         style="fill:none;stroke:#000000;stroke-width:0.46221px" />
      <ellipse
         id="path4185-0-8"
         rx="3.9479001"
         ry="3.5263"
         cy="430.01999"
         cx="-151.08"
         style="fill:#2b0000" />
      <path
         id="path4250-5-9"
         d="m -165.64,435.27 c 0,0 1.0249,4.2379 3.9592,4.4127 3.0021,0.17879 5.6712,-3.9356 5.6712,-3.9356"
         inkscape:connector-curvature="0"
         style="fill:none;stroke:#000000;stroke-width:0.15815px" />
    </g>
    <g
       id="g3505"
       transform="translate(0.71429,-59.286)">
      <ellipse
         id="path4337"
         rx="45"
         ry="46.070999"
         cy="554.15002"
         cx="212.14"
         style="fill:#e6e6e6" />
      <text
         id="text4401"
         style="font-stretch:condensed;font-size:11.25px;line-height:125%;font-family:'Myriad Pro';letter-spacing:0px;word-spacing:0px;fill:#000000"
         line-height="125%"
         font-size="11.25px"
         font-stretch="condensed"
         y="554.16412"
         x="185.022"
         xml:space="preserve"
         sodipodi:linespacing="125%"><tspan
           id="tspan4403"
           y="554.16412"
           x="185.022">Centralized Code</tspan><tspan
           id="tspan4405"
           y="568.22662"
           x="185.022">Hosting System</tspan></text>
    </g>
    <path
       id="path4413"
       d="M 99.731,546.25 C 101,526.48 106.06,507.69 152.21,499.48"
       inkscape:connector-curvature="0"
       style="fill:none;stroke:#000000;stroke-width:1px;marker-end:url(#Arrow2Lend)" />
    <path
       id="path4413-0"
       d="m 268.95,498.84 c 18.616,-2.2957 37.005,-1.0988 53.039,36.24 0.89869,2.0928 1.79,4.2991 2.6735,6.6248"
       inkscape:connector-curvature="0"
       style="fill:none;stroke:#000000;stroke-width:1px;marker-end:url(#Arrow2Lend-3)" />
    <g
       font-size="14.168px"
       id="g8324"
       style="font-size:14.16800022px;font-family:Sans;fill:#000000">
      <text
         id="text4401-0"
         style="line-height:125%;letter-spacing:0px;word-spacing:0px"
         xml:space="preserve"
         y="546.70178"
         x="106.38446"
         line-height="125%"
         sodipodi:linespacing="125%"><tspan
           id="tspan4405-2"
           font-size="11.25px"
           font-stretch="condensed"
           y="546.70178"
           x="106.38446"
           style="font-stretch:condensed;font-size:11.25px;font-family:'Myriad Pro'">commit</tspan></text>
      <text
         id="text4401-0-3"
         style="line-height:125%;letter-spacing:0px;word-spacing:0px"
         xml:space="preserve"
         y="544.7868"
         x="281.60956"
         line-height="125%"
         sodipodi:linespacing="125%"><tspan
           id="tspan4405-2-2"
           font-size="11.25px"
           font-stretch="condensed"
           y="544.7868"
           x="281.60956"
           style="font-stretch:condensed;font-size:11.25px;font-family:'Myriad Pro'">checkout</tspan></text>
      <text
         id="text4401-0-7"
         style="line-height:125%;letter-spacing:0px;word-spacing:0px"
         xml:space="preserve"
         y="484.5954"
         x="111.6045"
         line-height="125%"
         sodipodi:linespacing="125%"><tspan
           id="tspan4405-2-4"
           font-size="11.25px"
           font-stretch="condensed"
           y="484.5954"
           x="111.6045"
           style="font-stretch:condensed;font-size:11.25px;font-family:'Myriad Pro'">upload work</tspan></text>
      <text
         id="text4401-0-7-7"
         style="line-height:125%;letter-spacing:0px;word-spacing:0px"
         xml:space="preserve"
         y="484.46039"
         x="265.81226"
         line-height="125%"
         sodipodi:linespacing="125%"><tspan
           id="tspan4405-2-4-5"
           font-size="11.25px"
           font-stretch="condensed"
           y="484.46039"
           x="265.81226"
           style="font-stretch:condensed;font-size:11.25px;font-family:'Myriad Pro'">download work</tspan></text>
    </g>
  </g>
</svg>
